<svg xmlns="http://www.w3.org/2000/svg" xmlns:xlink="http://www.w3.org/1999/xlink" version="1.1" x="0px" y="0px" viewBox="0 0 100 125" style="enable-background:new 0 0 100 100;" xml:space="preserve"><path d="M96.6850281,48.0933609L51.2392654,7.5868034c-0.7686119-0.76861-2.0857849-0.76861-2.9639282,0  L3.3781421,47.9829254C2.8293505,48.4224129,2.5,49.0814896,2.5,49.7394371c0,1.2074165,0.9879005,2.3050766,2.3053775,2.3050766  h11.3065414v38.6402931c0,1.2071915,0.9879017,2.3048477,2.1953182,2.3048477h18.112463  c1.3174782,0,2.305378-1.0976562,2.305378-2.3048477V65.766571h21.6251831v24.9182358  c0,1.2071915,0.9879036,2.3048477,2.3053055,2.3048477h18.9906807c1.3171768,0,2.3052979-1.0976562,2.3052979-2.3048477V52.0445137  h11.3065491c0.5488663,0,1.2074127-0.3291245,1.6465225-0.7677078  C97.7826843,50.288681,97.6729279,48.8610687,96.6850281,48.0933609z M81.6462479,47.4345856  c-1.2074203,0-2.1955414,1.0976601-2.1955414,2.3048515v38.6402931h-14.599823V63.5712509  c0-1.3178558-0.9878998-2.3057556-2.1953163-2.3057556H36.4197006c-1.2074165,0-2.1953163,0.9878998-2.1953163,2.3057556v24.8084793  h-13.611845V49.7394371c0-1.2071915-0.9878998-2.3048515-2.3053017-2.3048515h-7.6840649l39.1889305-35.1271172  l39.5182114,35.1271172H81.6462479z"/><text x="0" y="115" fill="#000000" font-size="5px" font-weight="bold" font-family="'Helvetica Neue', Helvetica, Arial-Unicode, Arial, Sans-serif">Created by eriksa</text><text x="0" y="120" fill="#000000" font-size="5px" font-weight="bold" font-family="'Helvetica Neue', Helvetica, Arial-Unicode, Arial, Sans-serif">from the Noun Project</text></svg>